# AST/ASF file generated using VICON BodyLanguage
# -----------------------------------------------
:version 1.10
:name VICON
:units
  mass 1.0
  length 0.45
  angle deg
:documentation
   .ast/.asf automatically generated from VICON data using
   VICON BodyBuilder and BodyLanguage model FoxedUp or BRILLIANT.MOD
:root
   order TX TY TZ RX RY RZ
   axis XYZ
   position 0 0 0  
   orientation 0 0 0 
:bonedata
  begin
     id 1 
     name lhipjoint
     direction 0.558404 -0.748506 0.357664 
     length 2.4234 
     axis 0 0 0  XYZ
  end
  begin
     id 2 
     name lfemur
     direction 0.34202 -0.939693 0  
     length 7.14567  
     axis 0 0 20  XYZ
    dof rx ry rz
    limits (-160.0 20.0)
           (-70.0 70.0)
           (-60.0 70.0)
  end
  begin
     id 3 
     name ltibia
     direction 0.34202 -0.939693 0   
     length 8.13956   
     axis 0 0 20   XYZ
    dof rx
    limits (-10.0 170.0)
  end
  begin
     id 4 
     name lfoot
     direction 0.0791314 -0.217412 0.972867   
     length 2.00134   
     axis -90 7.62852e-016 20   XYZ
    dof rx rz
    limits (-45.0 90.0)
           (-70.0 20.0)
  end
  begin
     id 5 
     name ltoes
     direction 1.53547e-011 -4.21922e-011 1   
     length 1.00735   
     axis -90 7.62852e-016 20   XYZ
    dof rx
    limits (-90.0 20.0)
  end
  begin
     id 6 
     name rhipjoint
     direction -0.496392 -0.78327 0.374276   
     length 2.31584  
     axis 0 0 0  XYZ 
  end
  begin
     id 7 
     name rfemur
     direction -0.34202 -0.939693 0   
     length 7.47417   
     axis 0 0 -20   XYZ
    dof rx ry rz
    limits (-160.0 20.0)
           (-70.0 70.0)
           (-70.0 60.0)
  end
  begin
     id 8 
     name rtibia
     direction -0.34202 -0.939693 0   
     length 7.69071   
     axis 0 0 -20   XYZ
    dof rx
    limits (-10.0 170.0)
 end
 begin
     id 9 
     name rfoot
     direction -0.103069 -0.28318 0.953512   
     length 2.16135  
     axis -90 -7.62852e-016 -20   XYZ
    dof rx rz
    limits (-45.0 90.0)
           (-20.0 70.0)
  end
  begin
     id 10 
     name rtoes
     direction -1.53581e-011 -4.21904e-011 1   
     length 1.07867   
     axis -90 -7.62852e-016 -20   XYZ
    dof rx
    limits (-90.0 20.0)
  end
  begin
     id 11 
     name lowerback
     direction -0.0258961 0.994776 -0.0987407   
     length 2.19412   
     axis 0 0 0   XYZ
    dof rx ry rz
    limits (-20.0 45.0)
           (-30.0 30.0)
           (-30.0 30.0)
  end
  begin
     id 12 
     name upperback
     direction 0.0402454 0.999185 0.00320666   
     length 2.18445   
     axis 0 0 0   XYZ
    dof rx ry rz
    limits (-20.0 45.0)
           (-30.0 30.0)
           (-30.0 30.0)
  end
  begin
     id 13 
     name thorax
     direction 0.0519376 0.997415 0.0496558   
     length 2.21487   
     axis 0 0 0   XYZ
    dof rx ry rz
    limits (-20.0 45.0)
           (-30.0 30.0)
           (-30.0 30.0)
  end
  begin
     id 14 
     name lowerneck
     direction -0.0921276 0.983211 0.157506   
     length 1.61201   
     axis 0 0 0   XYZ
    dof rx ry rz
    limits (-20.0 45.0)
           (-30.0 30.0)
           (-30.0 30.0)
  end
  begin
     id 15 
     name upperneck
     direction 0.0820814 0.98162 -0.172292   
     length 1.65275   
     axis 0 0 0   XYZ
    dof rx ry rz
    limits (-20.0 45.0)
           (-30.0 30.0)
           (-30.0 30.0)
  end
  begin
     id 16
     name head
     direction 0.0336554 0.996413 -0.0776455  
     length 1.66415  
     axis 0 0 0   XYZ
    dof rx ry rz
    limits (-20.0 45.0)
           (-30.0 30.0)
           (-30.0 30.0)
  end
  begin
     id 17 
     name lclavicle
     direction 0.94696 0.284418 -0.149576  
     length 3.41447  
     axis 0 0 0   XYZ
    dof ry rz
    limits (-20.0 10.0)
           (0.0 20.0)
  end
  begin
     id 18 
     name lhumerus
     direction 1 -0.000130264 -9.81312e-005   
     length 5.19964   
     axis 180 -30 -90   XYZ
    dof rx ry rz
    limits (-60.0 90.0)
           (-90.0 90.0)
           (-90.0 90.0)
  end
  begin
     id 19
     name lradius
     direction 1 -4.48961e-011 1.43854e-026   
     length 3.32189   
     axis 180 -30 -90   XYZ
    dof rx
    limits (-10.0 170.0)
  end
  begin
     id 20
     name lwrist
     direction 1 -4.48958e-011 3.1502e-026   
     length 1.66095   
     axis -1.97692e-014 90 90   XYZ
    dof ry
    limits (-180.0 0.0)
 end
  begin
     id 21 
     name lhand
     direction 1 -4.48927e-011 6.3004e-026   
     length 0.645616   
     axis -4.02019e-014 90 90   XYZ
    dof rx rz
    limits (-90.0 90.0)
           (-45.0 45.0)
  end
  begin
     id 22 
     name lfingers
     direction 1 -4.4904e-011 1.26008e-025   
     length 0.520512   
     axis -8.04039e-014 90 90   XYZ
    dof rx
    limits (0.0 90.0)
  end
  begin
     id 23
     name lthumb
     direction 0.707107 -6.34947e-011 0.707107   
     length 0.747354   
     axis -90 45 2.85299e-015   XYZ
    dof rx rz
    limits (-45.0 45.0)
           (-45.0 45.0)
  end
  begin
     id 24 
     name rclavicle
     direction -0.909391 0.383475 -0.161107   
     length 3.25176  
     axis 0 0 0   XYZ 
    dof ry rz
    limits (-10.0 20.0)
           (-20.0 0.0)
  end
  begin
     id 25 
     name rhumerus
     direction -1 -4.48965e-011 -1.81384e-027  
     length 5.6595   
     axis 180 30 90   XYZ
    dof rx ry rz
    limits (-90.0 60.0)
           (-90.0 90.0)
           (-90.0 90.0)
  end
  begin
     id 26 
     name rradius
     direction -1 -4.48996e-011 -8.09397e-027   
     length 3.37604   
     axis 180 30 90   XYZ
    dof rx
    limits (-10.0 170.0)
  end
  begin
     id 27 
     name rwrist
     direction -1 -4.48927e-011 -1.56669e-026   
     length 1.68802   
     axis 1.21142e-014 -90 -90   XYZ
    dof ry
    limits (-180.0 0.0)
  end
  begin
     id 28
     name rhand
     direction -1 -4.48912e-011 -3.13339e-026   
     length 0.824702   
     axis 1.99937e-014 -90 -90   XYZ
    dof rx rz
    limits (-90.0 90.0)
           (-45.0 45.0)
  end
  begin
     id 29
     name rfingers
     direction -1 -4.49011e-011 -6.26677e-026   
     length 0.664896   
     axis 3.99874e-014 -90 -90   XYZ
    dof rx
    limits (0.0 90.0)
  end
  begin
     id 30
     name rthumb
     direction -0.707107 -6.34931e-011 0.707107   
     length 0.954662   
     axis -90 -45 -2.85299e-015   XYZ
    dof rx rz
    limits (-45.0 45.0)
           (-45.0 45.0)
  end
:hierarchy
  begin
    root lhipjoint rhipjoint lowerback
    lhipjoint lfemur
    lfemur ltibia
    ltibia lfoot
    lfoot ltoes
    rhipjoint rfemur
    rfemur rtibia
    rtibia rfoot
    rfoot rtoes
    lowerback upperback
    upperback thorax
    thorax lowerneck lclavicle rclavicle
    lowerneck upperneck
    upperneck head
    lclavicle lhumerus
    lhumerus lradius
    lradius lwrist
    lwrist lhand lthumb
    lhand lfingers
    rclavicle rhumerus
    rhumerus rradius
    rradius rwrist
    rwrist rhand rthumb
    rhand rfingers
  end

#!OML:ASF F:\VICON\USERDATA\INSTALL\rory3\rory3.ASF
:FULLY-SPECIFIED
:DEGREES
166
root 4.84371 14.6584 5.42996 -8.34362 -0.374039 -3.67892
lowerback 16.7496 -10.3159 -2.00573
upperback 1.83178 -13.5155 8.96469
thorax -4.46253 -6.73266 13.4731
lowerneck -11.0794 -0.411275 -7.78502
upperneck 28.8402 -0.155282 3.74182
head 11.1584 -0.545605 2.67913
rclavicle -2.5842e-014 2.54444e-014
rhumerus -54.5846 -18.5053 -55.7558
rradius 35.3982
rwrist -6.71535
rhand -16.6689 19.0679
rfingers 7.12502
rthumb 9.55483 -10.6954
lclavicle -2.5842e-014 2.54444e-014
lhumerus 1.82522 -48.8316 102.992
lradius 49.4152
lwrist -4.54945
lhand -17.1223 26.1522
lfingers 7.12502
lthumb 9.11729 55.9351
rfemur -56.2766 -5.50202 41.0378
rtibia 69.1173
rfoot 20.1723 -0.240602
rtoes 20.018
lfemur -22.0627 10.7653 -43.7999
ltibia 69.8412
lfoot -15.4303 -9.12012
ltoes 32.848
167
root 4.97702 14.7123 5.67868 -8.5304 -1.85738 -3.26478
lowerback 15.099 -9.89079 -1.43019
upperback 2.58393 -12.9695 8.36357
thorax -3.18199 -6.54998 11.927
lowerneck -11.2676 -0.440112 -7.22315
upperneck 28.4077 -0.318608 3.83303
head 11.0372 -0.534559 2.58803
rclavicle -1.60618e-013 2.22639e-014
rhumerus -54.2677 -18.681 -56.4987
rradius 35.7329
rwrist -7.38876
rhand -16.906 18.9626
rfingers 7.12502
rthumb 9.32605 -10.8111
lclavicle -1.60618e-013 2.22639e-014
lhumerus 4.61134 -52.3582 100.77
lradius 50.1897
lwrist -5.62438
lhand -17.3381 25.3615
lfingers 7.12502
lthumb 8.90913 55.1535
rfemur -53.3748 -3.39863 40.682
rtibia 68.8475
rfoot 20.1941 1.71815
rtoes 32.2358
lfemur -20.8458 13.6392 -43.9705
ltibia 68.6397
lfoot -14.5803 -10.1164
ltoes 32.8725
168
root 5.0802 14.7674 5.86751 -8.17654 -1.18447 -2.5356
lowerback 14.9874 -9.84846 -2.35944
upperback 1.95528 -13.0348 8.6719
thorax -3.49994 -6.55095 12.8381
lowerneck -11.0789 -0.387203 -7.54524
upperneck 28.3037 -0.10045 3.56024
head 10.9503 -0.499235 2.56754
rclavicle -1.03368e-014 -9.54166e-015
rhumerus -54.3453 -17.3586 -55.8922
rradius 36.1561
rwrist -8.12752
rhand -16.8408 19.4322
rfingers 7.12502
rthumb 9.38891 -10.3387
lclavicle -1.03368e-014 -9.54166e-015
lhumerus 6.43007 -54.8571 100.696
lradius 50.7296
lwrist -6.83704
lhand -17.2802 24.4086
lfingers 7.12502
lthumb 8.96498 54.1981
rfemur -51.5929 -2.98581 39.7771
rtibia 68.1875
rfoot 17.4478 6.03695
rtoes 44.9063
lfemur -19.8482 14.8274 -44.6092
ltibia 67.7877
lfoot -13.2277 -11.4393
ltoes 33.5336
169
root 5.19802 14.8252 6.07548 -7.69503 -0.0255173 -1.86174
lowerback 14.134 -10.1252 -2.75787
upperback 1.52766 -13.4733 8.70624
thorax -3.30495 -6.76962 12.9906
lowerneck -10.248 -0.169729 -8.08425
upperneck 27.608 0.158894 3.96221
head 10.5043 -0.376841 2.8172
rclavicle 1.07741e-013 -6.99722e-014
rhumerus -54.4205 -17.0076 -54.9697
rradius 36.0758
rwrist -6.89713
rhand -16.3914 20.8072
rfingers 7.12502
rthumb 9.82254 -8.94373
lclavicle 1.07741e-013 -6.99722e-014
lhumerus 8.97691 -57.3432 99.4349
lradius 51.2354
lwrist -7.56921
lhand -16.7975 23.0087
lfingers 7.12502
lthumb 9.43074 52.7777
rfemur -50.0085 -3.0109 38.6914
rtibia 67.4562
rfoot 9.83028 7.17961
rtoes 43.8861
lfemur -18.6941 15.6279 -45.2059
ltibia 66.9523
lfoot -11.871 -12.7536
ltoes 33.8772
170
root 5.26657 14.8623 6.18845 -5.99414 0.957474 -3.54102
lowerback 13.1128 -10.4439 -1.33798
upperback 0.863847 -13.6453 9.55295
thorax -3.54195 -6.84394 13.0515
lowerneck -10.9664 -0.389079 -7.68706
upperneck 27.7348 -0.0758915 3.61806
head 10.7124 -0.479505 2.60463
rclavicle -1.13307e-013 4.45278e-014
rhumerus -54.3302 -16.8171 -54.8563
rradius 36.5471
rwrist -7.28878
rhand -17.1122 19.8887
rfingers 7.12502
rthumb 9.12711 -9.89384
lclavicle -1.13307e-013 4.45278e-014
lhumerus 12.4983 -59.9433 96.8098
lradius 51.8873
lwrist -7.84724
lhand -16.4373 22.5878
lfingers 7.12502
lthumb 9.7783 52.3408
rfemur -49.8238 -1.04413 40.0897
rtibia 65.9577
rfoot 3.83853 1.76744
rtoes 39.7424
lfemur -20.2678 15.9644 -43.3867
ltibia 67.1998
lfoot -10.0495 -14.3185
ltoes 32.8479
171
root 5.38458 14.8996 6.3667 -5.17537 0.607754 -2.83889
lowerback 12.0827 -10.1268 -1.72834
upperback 0.633429 -13.311 9.497
thorax -3.23387 -6.68258 12.9586
lowerneck -10.9538 -0.444829 -7.65486
upperneck 27.3707 -0.171183 3.6945
head 10.5796 -0.499979 2.60851
rclavicle 8.34896e-015 7.31528e-014
rhumerus -54.0514 -15.3735 -56.4433
rradius 38.4859
rwrist -12.8576
rhand -20.3436 15.6867
rfingers 7.12502
rthumb 6.00808 -14.2081
lclavicle 8.34896e-015 7.31528e-014
lhumerus 16.4714 -62.3183 93.7508
lradius 52.6421
lwrist -8.07897
lhand -15.9352 22.625
lfingers 7.12502
lthumb 10.2627 52.3547
rfemur -48.5429 0.989186 38.6891
rtibia 64.716
rfoot -0.882112 -1.8931
rtoes 36.4939
lfemur -20.3414 18.088 -44.0581
ltibia 66.7509
lfoot -8.59371 -15.6801
ltoes 32.5786
172
root 5.49005 14.9555 6.55803 -4.46652 3.32094 -3.32683
lowerback 11.3728 -10.8801 -0.984167
upperback -0.155837 -14.1794 9.93906
thorax -3.56099 -7.0905 13.0617
lowerneck -10.8191 -0.487679 -8.0035
upperneck 27.2339 -0.206896 3.86826
head 10.5057 -0.527536 2.72378
rclavicle -9.78021e-014 0
rhumerus -54.4365 -15.4946 -55.1892
rradius 38.6302
rwrist -12.9872
rhand -20.2738 16.3261
rfingers 7.12502
rthumb 6.07546 -13.5668
lclavicle -9.78021e-014 0
lhumerus 19.5244 -64.2129 91.9362
lradius 53.3102
lwrist -8.37295
lhand -15.4666 22.2785
lfingers 7.12502
lthumb 10.7147 51.9852
rfemur -47.8682 0.692047 38.0227
rtibia 63.4499
rfoot -4.77324 -1.67626
rtoes 38.633
lfemur -19.419 17.8623 -43.0405
ltibia 66.584
lfoot -6.28872 -17.5859
ltoes 34.1326
173
root 5.59529 14.9881 6.71798 -3.78503 4.95037 -2.88658
lowerback 10.9705 -11.0784 -1.14826
upperback -0.837262 -14.4382 10.0301
thorax -3.95257 -7.176 13.2727
lowerneck -10.7378 -0.651353 -8.24696
upperneck 27.0396 -0.439114 4.07228
head 10.4349 -0.628837 2.8078
rclavicle 1.01977e-013 -8.26944e-014
rhumerus -55.1785 -17.3985 -52.3655
rradius 37.5538
rwrist -9.65102
rhand -18.8044 19.281
rfingers 7.12502
rthumb 7.49392 -10.5663
lclavicle 1.01977e-013 -8.26944e-014
lhumerus 22.8884 -66.122 89.6068
lradius 54.0403
lwrist -8.23149
lhand -15.1837 21.6816
lfingers 7.12502
lthumb 10.9876 51.374
rfemur -47.695 0.903633 36.6333
rtibia 62.9733
rfoot -7.4214 -3.1632
rtoes 37.408
lfemur -18.7583 18.6435 -43.068
ltibia 66.1199
lfoot -3.73487 -19.0844
ltoes 34.8206
174
root 5.70235 15.0346 6.88489 -3.28539 7.23551 -2.67726
lowerback 10.0297 -11.5116 -1.02412
upperback -1.0196 -15.0314 9.99819
thorax -3.5434 -7.49546 12.9841
lowerneck -10.9882 -0.867757 -8.23056
upperneck 26.4547 -0.774702 4.34543
head 10.2918 -0.730749 2.85366
rclavicle -4.01545e-014 5.08889e-014
rhumerus -55.3207 -21.8253 -48.8481
rradius 35.891
rwrist -5.82445
rhand -18.3171 20.6066
rfingers 7.12502
rthumb 7.96431 -9.22332
lclavicle -4.01545e-014 5.08889e-014
lhumerus 28.1172 -67.7172 85.1693
lradius 54.732
lwrist -8.17892
lhand -14.8068 21.0502
lfingers 7.12502
lthumb 11.3511 50.723
rfemur -47.6688 0.239202 35.6213
rtibia 62.9
rfoot -8.66575 -5.74719
rtoes 33.9516
lfemur -17.6244 18.9067 -42.5058
ltibia 65.8149
lfoot -0.861792 -20.5745
ltoes 35.2818
175
root 5.79226 15.1203 6.99373 -2.68215 8.9446 -2.34197
lowerback 10.2748 -11.6735 -1.54366
upperback -1.54688 -15.2703 10.1932
thorax -3.99978 -7.56875 13.6309
lowerneck -11.3491 -1.0957 -8.37755
upperneck 26.1356 -1.03615 4.4283
head 10.2671 -0.84275 2.87295
rclavicle -6.36111e-015 -1.90833e-014
rhumerus -55.5898 -21.3329 -48.8685
rradius 36.7777
rwrist -7.66704
rhand -18.695 20.2239
rfingers 7.12502
rthumb 7.59954 -9.61955
lclavicle -6.36111e-015 -1.90833e-014
lhumerus 32.3997 -68.7316 81.8651
lradius 55.3404
lwrist -8.32016
lhand -14.2814 20.864
lfingers 7.12502
lthumb 11.8578 50.5082
rfemur -48.5286 0.540449 34.3648
rtibia 63.53
rfoot -8.9633 -7.68967
rtoes 34.573
lfemur -17.3184 19.5522 -41.895
ltibia 65.543
lfoot 2.83258 -22.141
ltoes 34.9737
176
root 5.88884 15.1762 7.0826 -1.95331 9.47016 -3.15034
lowerback 10.584 -11.5095 -0.637993
upperback -2.18919 -14.8395 10.693
thorax -5.0536 -7.28148 13.9084
lowerneck -11.4627 -1.35102 -8.68023
upperneck 25.9777 -1.32403 4.48456
head 10.258 -0.991714 2.90787
rclavicle -5.04913e-014 -6.67916e-014
rhumerus -56.0947 -18.7389 -50.6579
rradius 39.355
rwrist -13.8629
rhand -20.6692 17.5682
rfingers 7.12502
rthumb 5.69375 -12.3353
lclavicle -5.04913e-014 -6.67916e-014
lhumerus 35.6396 -69.6266 79.6209
lradius 56.0076
lwrist -8.25871
lhand -13.4322 20.6727
lfingers 7.12502
lthumb 12.6765 50.268
rfemur -49.4607 1.5469 34.4725
rtibia 64.081
rfoot -8.92542 -8.98019
rtoes 33.7752
lfemur -18.0169 20.797 -40.3139
ltibia 65.5745
lfoot 6.13024 -23.856
ltoes 32.1885
177
root 5.99585 15.2133 7.18834 -1.76893 10.7156 -2.66217
lowerback 11.3006 -11.4923 -0.84356
upperback -2.69714 -14.7713 10.6769
thorax -5.97068 -7.1572 14.2876
lowerneck -11.9836 -1.64795 -8.94452
upperneck 26.1743 -1.65606 4.57355
head 10.4628 -1.15642 2.94937
rclavicle 1.41535e-013 6.36111e-015
rhumerus -56.9027 -18.8759 -49.7168
rradius 39.8379
rwrist -14.2061
rhand -20.2868 18.5869
rfingers 7.12502
rthumb 6.06291 -11.3064
lclavicle 1.41535e-013 6.36111e-015
lhumerus 38.4446 -70.2917 77.7104
lradius 56.678
lwrist -8.04239
lhand -12.3352 20.0154
lfingers 7.12502
lthumb 13.734 49.5421
rfemur -49.6052 1.05682 33.1373
rtibia 64.788
rfoot -9.63495 -9.30287
rtoes 33.6319
lfemur -17.233 21.2978 -39.7982
ltibia 65.2893
lfoot 8.60097 -25.44
ltoes 28.0086
